<?xml version="1.0" encoding="UTF-8"?>
<svg width="165px" height="35px" viewBox="0 0 165 35" version="1.1" xmlns="http://www.w3.org/2000/svg" xmlns:xlink="http://www.w3.org/1999/xlink">
    <!-- Generator: Sketch 54.1 (76490) - https://sketchapp.com -->
    <title>Group 34</title>
    <desc>Created with Sketch.</desc>
    <defs>
        <polygon id="path-1" points="0 -9.01960784e-05 45.9062378 -9.01960784e-05 45.9062378 22.915351 0 22.915351"></polygon>
        <polygon id="path-3" points="0 34.1161826 165 34.1161826 165 0.116182573 0 0.116182573"></polygon>
    </defs>
    <g id="Symbols" stroke="none" stroke-width="1" fill="none" fill-rule="evenodd">
        <g id="Footer---dark" transform="translate(-1149.000000, -311.000000)">
            <g id="Footer" transform="translate(100.000000, 97.000000)">
                <g id="Group-2" transform="translate(1047.000000, 214.000000)">
                    <g id="Group-34" transform="translate(2.000000, 0.000000)">
                        <path d="M36.7727434,23.8778101 L43.8226671,31.0256069 C43.8800825,31.0838175 43.9581675,31.1161826 44.0394677,31.1161826 L52.6933484,31.1161826 C52.9659568,31.1161826 53.1026055,30.7822865 52.9096897,30.5866989 L41.5327108,19.0519181 L48.456091,12.0328832 C48.575515,11.9115723 48.575515,11.7150533 48.456091,11.5942081 L44.1285764,7.20699112 C44.009382,7.08591306 43.8155476,7.08591306 43.6961236,7.20699112 L25.0893958,26.0714186 C24.9702014,26.1924967 24.9702014,26.3887828 25.0893958,26.5103266 L29.4166807,30.896845 C29.535875,31.0181559 29.7299391,31.0181559 29.8493632,30.896845 L36.7727434,23.8778101 Z" id="Fill-1" fill="#0086EA"></path>
                        <g id="Group-5" transform="translate(0.000000, 0.116183)">
                            <mask id="mask-2" fill="white">
                                <use xlink:href="#path-1"></use>
                            </mask>
                            <g id="Clip-4"></g>
                            <path d="M36.7611632,0.0878509804 L30.0680488,6.68298824 L23.3742478,0.0878509804 C23.3170338,0.0317039216 23.2396806,-9.01960784e-05 23.1586657,-9.01960784e-05 L14.5349244,-9.01960784e-05 C14.2632726,-9.01960784e-05 14.1273323,0.323488235 14.3193423,0.5129 L25.3247851,11.356498 L22.9533821,13.6930275 L9.14514328,0.0878509804 C9.08815821,0.0317039216 9.01011841,-9.01960784e-05 8.92933234,-9.01960784e-05 L0.3058199,-9.01960784e-05 C0.0339393035,-9.01960784e-05 -0.102229851,0.323488235 0.0897800995,0.5129 L22.7378,22.8274098 C22.856805,22.9446647 23.0497303,22.9446647 23.1689642,22.8274098 L45.8162975,0.5129 C46.0083075,0.323488235 45.872596,-9.01960784e-05 45.6007154,-9.01960784e-05 L36.9769741,-9.01960784e-05 C36.8961881,-9.01960784e-05 36.8183771,0.0317039216 36.7611632,0.0878509804" id="Fill-3" fill="#EE282A" mask="url(#mask-2)"></path>
                        </g>
                        <path d="M51.0882758,0.205160468 L47.0871435,4.29859993 C46.9709522,4.41746527 46.9709522,4.61002256 47.0871435,4.72865976 L51.2889903,9.02720468 C51.4049587,9.14584187 51.5934073,9.14584187 51.7089296,9.02720468 L59.9123546,0.635220293 C60.0994652,0.443575596 59.9672166,0.116182573 59.7022735,0.116182573 L51.29858,0.116182573 C51.2198553,0.116182573 51.1440298,0.148351504 51.0882758,0.205160468" id="Fill-6" fill="#EE282A"></path>
                        <polygon id="Fill-8" fill="#FFFFFF" points="69.0371418 19.5118539 65 19.5118539 65 17.1161826 76 17.1161826 76 19.5118539 71.9630957 19.5118539 71.9630957 30.1161826 69.0371418 30.1161826"></polygon>
                        <path d="M84,27.6740204 C83.638893,29.7701864 81.9082589,31.1161826 79.6715478,31.1161826 C76.5874213,31.1161826 75,28.5394207 75,26.0970946 C75,23.6353291 76.4070874,21.1161826 79.4914336,21.1161826 C82.7012008,21.1161826 83.9815493,23.6353291 83.9815493,25.8469599 C83.9815493,26.2123252 83.9639772,26.50087 83.9453068,26.7123603 L77.4168253,26.7123603 C77.5975985,28.07803 78.4094304,28.9237569 79.6715478,28.9237569 C80.681725,28.9237569 81.3490262,28.5010105 81.5469322,27.6740204 L84,27.6740204 Z M77.4528481,25.0202039 L81.4748865,25.0202039 C81.4028408,23.9430791 80.6992971,23.0776787 79.4914336,23.0776787 C78.3547372,23.0776787 77.6696442,23.6739735 77.4528481,25.0202039 L77.4528481,25.0202039 Z" id="Fill-10" fill="#FFFFFF"></path>
                        <path d="M85,26.1160655 C85,23.289169 87.0388767,21.1161826 90.0981469,21.1161826 C92.686503,21.1161826 94.7454389,22.6546982 94.9214347,24.9047391 L92.1761868,24.9047391 C92.0200115,24.0391046 91.1768077,23.4046338 90.1764734,23.4046338 C88.706419,23.4046338 87.8429172,24.5391397 87.8429172,26.1160655 C87.8429172,27.6929912 88.725523,28.8082921 90.2158754,28.8082921 C91.2162098,28.8082921 92.0200115,28.2122315 92.2153501,27.3468311 L95,27.3468311 C94.7062757,29.5006124 92.6671602,31.1161826 90.0981469,31.1161826 C87.0388767,31.1161826 85,28.942962 85,26.1160655" id="Fill-12" fill="#FFFFFF"></path>
                        <path d="M96,17.1161826 L98.6060744,17.1161826 L98.6060744,22.7120792 C99.1498059,21.7635902 100.181777,21.2020903 101.493492,21.2020903 C103.61224,21.2020903 105,22.7896657 105,25.0359009 L105,31.1161826 L102.393926,31.1161826 L102.393926,25.6363119 C102.393926,24.4550634 101.643298,23.6030269 100.555835,23.6030269 C99.4126513,23.6030269 98.6060744,24.5130764 98.6060744,25.7719114 L98.6060744,31.1161826 L96,31.1161826 L96,17.1161826 Z" id="Fill-14" fill="#FFFFFF"></path>
                        <path d="M107,20.2722244 L109.619673,20.2722244 L109.619673,21.6394937 C110.143107,20.6825479 111.191113,20.1161826 112.482719,20.1161826 C114.615192,20.1161826 116,21.7175146 116,23.9834518 L116,30.1161826 L113.380327,30.1161826 L113.380327,24.5888277 C113.380327,23.3973434 112.650437,22.5379238 111.565287,22.5379238 C110.423395,22.5379238 109.619673,23.4558591 109.619673,24.7256022 L109.619673,30.1161826 L107,30.1161826 L107,20.2722244 Z" id="Fill-16" fill="#FFFFFF"></path>
                        <path d="M117,26.1160655 C117,23.2315537 119.086529,21.1161826 122.000114,21.1161826 C124.913243,21.1161826 127,23.2315537 127,26.1160655 C127,29.0008115 124.913243,31.1161826 122.000114,31.1161826 C119.086529,31.1161826 117,29.0008115 117,26.1160655 M124.368204,26.1160655 C124.368204,24.5007295 123.409294,23.4046338 122.000114,23.4046338 C120.590706,23.4046338 119.631567,24.5007295 119.631567,26.1160655 C119.631567,27.7121963 120.590706,28.8082921 122.000114,28.8082921 C123.409294,28.8082921 124.368204,27.7121963 124.368204,26.1160655" id="Fill-18" fill="#FFFFFF"></path>
                        <mask id="mask-4" fill="white">
                            <use xlink:href="#path-3"></use>
                        </mask>
                        <g id="Clip-21"></g>
                        <polygon id="Fill-20" fill="#FFFFFF" mask="url(#mask-4)" points="129 31.1161826 132 31.1161826 132 17.1161826 129 17.1161826"></polygon>
                        <path d="M133,26.1160655 C133,23.2315537 135.086529,21.1161826 138.000114,21.1161826 C140.913243,21.1161826 143,23.2315537 143,26.1160655 C143,29.0008115 140.913243,31.1161826 138.000114,31.1161826 C135.086529,31.1161826 133,29.0008115 133,26.1160655 M140.368204,26.1160655 C140.368204,24.5007295 139.409294,23.4046338 138.000114,23.4046338 C136.590706,23.4046338 135.631567,24.5007295 135.631567,26.1160655 C135.631567,27.7121963 136.590706,28.8082921 138.000114,28.8082921 C139.409294,28.8082921 140.368204,27.7121963 140.368204,26.1160655" id="Fill-22" fill="#FFFFFF" mask="url(#mask-4)"></path>
                        <path d="M154,21.2612388 L154,30.9567874 C154,32.8633037 152.52521,34.1161826 150.310425,34.1161826 L145.378063,34.1161826 L145.378063,32.136917 L149.884022,32.136917 C150.698988,32.136917 151.301343,31.5378968 151.301343,30.6843648 L151.301343,29.4861031 C150.796661,30.1578726 149.767666,30.5574406 148.62137,30.5574406 C145.72784,30.5574406 144,28.6871883 144,25.836701 C144,22.9862137 145.72784,21.1161826 148.582584,21.1161826 C149.767666,21.1161826 150.73801,21.5336614 151.282424,22.1691669 L151.282424,21.2612388 L154,21.2612388 Z M151.456485,25.836701 C151.456485,24.2932675 150.505061,23.2767684 149.048718,23.2767684 C147.611532,23.2767684 146.660108,24.2932675 146.660108,25.836701 C146.660108,27.3799134 147.611532,28.3785016 149.048718,28.3785016 C150.505061,28.3785016 151.456485,27.3799134 151.456485,25.836701 L151.456485,25.836701 Z" id="Fill-23" fill="#FFFFFF" mask="url(#mask-4)"></path>
                        <polygon id="Fill-24" fill="#FFFFFF" mask="url(#mask-4)" points="161.405304 21.1161826 159.49989 27.0836376 157.576796 21.1161826 155 21.1161826 158.320884 30.2967967 156.977901 34.1161826 159.39116 34.1161826 160.68 30.3336935 164 21.1161826"></polygon>
                        <polygon id="Fill-25" fill="#FFFFFF" mask="url(#mask-4)" points="65 0.116182573 67.7716739 0.116182573 70.2152958 9.0118122 72.8241652 0.116182573 75.1396313 0.116182573 77.7662693 9.0118122 80.2278818 0.116182573 83 0.116182573 79.2255127 13.1161826 76.5260235 13.1161826 73.9911157 4.46188006 71.4555416 13.1161826 68.7927001 13.1161826"></polygon>
                        <path d="M83,9.11618257 C83,6.23150413 85.0865286,4.11618257 87.9998855,4.11618257 C90.9132425,4.11618257 93,6.23150413 93,9.11618257 C93,12.0006268 90.9132425,14.1161826 87.9998855,14.1161826 C85.0865286,14.1161826 83,12.0006268 83,9.11618257 M90.3682042,9.11618257 C90.3682042,7.50088443 89.4092938,6.40458016 87.9998855,6.40458016 C86.5907062,6.40458016 85.6315669,7.50088443 85.6315669,9.11618257 C85.6315669,10.7122761 86.5907062,11.8085803 87.9998855,11.8085803 C89.4092938,11.8085803 90.3682042,10.7122761 90.3682042,9.11618257" id="Fill-26" fill="#FFFFFF" mask="url(#mask-4)"></path>
                        <path d="M98.4585392,6.18763531 C97.1770429,6.18763531 96.6012293,7.20563743 96.6012293,8.7412309 L96.6012293,13.1161826 L94,13.1161826 L94,4.11618257 L96.6012293,4.11618257 L96.6012293,5.61632756 C97.1026057,4.49132756 97.8082884,4.11618257 98.9418153,4.11618257 L100,4.11618257 L100,6.18763531 L98.4585392,6.18763531 Z" id="Fill-27" fill="#FFFFFF" mask="url(#mask-4)"></path>
                        <polygon id="Fill-28" fill="#FFFFFF" mask="url(#mask-4)" points="101 14.1161826 104 14.1161826 104 0.116182573 101 0.116182573"></polygon>
                        <path d="M105,9.13665806 C105,6.12991064 106.748209,4.15713354 109.582043,4.15713354 C110.806002,4.15713354 111.757313,4.61685731 112.30048,5.32545235 L112.30048,0.116182573 L115,0.116182573 L115,13.9629413 L112.30048,13.9629413 L112.30048,12.9096118 C111.757313,13.6564588 110.747121,14.1161826 109.620823,14.1161826 C106.748209,14.1161826 105,12.1436387 105,9.13665806 M112.45584,9.13665806 C112.45584,7.50884872 111.504528,6.43615991 110.068458,6.43615991 C108.631204,6.43615991 107.679657,7.50884872 107.679657,9.13665806 C107.679657,10.7453414 108.631204,11.8180302 110.068458,11.8180302 C111.504528,11.8180302 112.45584,10.7453414 112.45584,9.13665806" id="Fill-29" fill="#FFFFFF" mask="url(#mask-4)"></path>
                        <polygon id="Fill-30" fill="#FFFFFF" mask="url(#mask-4)" points="121 0.116182573 123.771674 0.116182573 126.215296 9.0118122 128.824165 0.116182573 131.139631 0.116182573 133.766269 9.0118122 136.227882 0.116182573 139 0.116182573 135.225291 13.1161826 132.526024 13.1161826 129.991116 4.46188006 127.455542 13.1161826 124.7927 13.1161826"></polygon>
                        <path d="M140,2.9628288 L143,2.9628288 L143,0.116182573 L140,0.116182573 L140,2.9628288 Z M140.080988,14.1161826 L142.919753,14.1161826 L142.919753,4.35655585 L140.080988,4.35655585 L140.080988,14.1161826 Z" id="Fill-31" fill="#FFFFFF" mask="url(#mask-4)"></path>
                        <path d="M144,9.13665806 C144,6.12991064 145.747972,4.15713354 148.582043,4.15713354 C149.805765,4.15713354 150.757313,4.61685731 151.30048,5.32545235 L151.30048,0.116182573 L154,0.116182573 L154,13.9629413 L151.30048,13.9629413 L151.30048,12.9096118 C150.757313,13.6564588 149.746885,14.1161826 148.620823,14.1161826 C145.747972,14.1161826 144,12.1436387 144,9.13665806 M151.456076,9.13665806 C151.456076,7.50884872 150.504292,6.43615991 149.068221,6.43615991 C147.630968,6.43615991 146.679657,7.50884872 146.679657,9.13665806 C146.679657,10.7453414 147.630968,11.8180302 149.068221,11.8180302 C150.504292,11.8180302 151.456076,10.7453414 151.456076,9.13665806" id="Fill-32" fill="#FFFFFF" mask="url(#mask-4)"></path>
                        <path d="M165,10.6740204 C164.638682,12.7701864 162.90809,14.1161826 160.671873,14.1161826 C157.587602,14.1161826 156,11.5394207 156,9.09709458 C156,6.63532912 157.407053,4.11618257 160.491324,4.11618257 C163.701232,4.11618257 164.98155,6.63532912 164.98155,8.84695991 C164.98155,9.21232516 164.963978,9.50087002 164.945308,9.71236029 L158.416766,9.71236029 C158.597535,11.0777958 159.409347,11.9237569 160.671873,11.9237569 C161.681586,11.9237569 162.349091,11.5010105 162.547212,10.6740204 L165,10.6740204 Z M158.452788,8.01996972 L162.474948,8.01996972 C162.402685,6.94307908 161.699158,6.0776787 160.491324,6.0776787 C159.354655,6.0776787 158.669579,6.67397352 158.452788,8.01996972 L158.452788,8.01996972 Z" id="Fill-33" fill="#FFFFFF" mask="url(#mask-4)"></path>
                    </g>
                </g>
            </g>
        </g>
    </g>
</svg>