<svg id="Layer_1" data-name="Layer 1" xmlns="http://www.w3.org/2000/svg" viewBox="0 0 167.18 50"><polygon points="118.1 0 114.36 13.28 110.37 0 106.85 0 102.89 13.28 99.17 0 94.96 0 100.72 19.4 104.77 19.4 108.62 6.49 112.48 19.4 116.58 19.4 122.32 0 118.1 0"/><polygon points="146.44 0 142.7 13.28 138.71 0 135.19 0 131.23 13.28 127.51 0 123.3 0 129.07 19.4 133.11 19.4 136.97 6.49 140.82 19.4 144.92 19.4 150.66 0 146.44 0"/><polygon points="151.54 0 151.54 3.58 157.28 3.58 157.28 19.4 161.44 19.4 161.44 3.58 167.18 3.58 167.18 0 151.54 0"/><path d="M101.61,42.63c3.94,0,7.57-2.41,7.57-8s-3.63-8-7.57-8H97.93v16ZM96.07,24.94h5.49c5.46,0,9.59,3.63,9.59,9.7s-4.13,9.71-9.59,9.71H96.07Z"/><path d="M114.06,30.38h1.75v14h-1.75ZM116,27.55h-2.11V24.72H116Z"/><path d="M130.24,37.36c0-3.38-2-5.6-5-5.6s-5,2.22-5,5.6,2,5.6,5,5.6,5-2.22,5-5.6m1.55-7V44.9a4.93,4.93,0,0,1-5.13,5.1H120.2V48.39h6.46A3.32,3.32,0,0,0,130,44.9V42.27c-.64,1.36-2.63,2.3-4.85,2.3-4.43,0-6.79-3.22-6.79-7.21s2.36-7.21,6.79-7.21A5.92,5.92,0,0,1,130,32.62V30.38Z"/><path d="M135.27,30.38H137v14h-1.75Zm1.91-2.83h-2.11V24.72h2.11Z"/><path d="M143.58,25.8v4.58H148V32h-4.43v8.18a2.29,2.29,0,0,0,2.33,2.58H148v1.61h-2.08a3.85,3.85,0,0,1-4.1-4.19V32h-3v-1.6h3V25.8Z"/><path d="M159.34,37.89v-.42H155.1c-2.33,0-3.82,1.11-3.82,2.88,0,1.58,1.24,2.61,3.18,2.61,3.08,0,4.88-1.86,4.88-5.07m1.75-2.55v9h-1.75V41.8a5.45,5.45,0,0,1-5,2.77c-3,0-4.91-1.64-4.91-4.22S151.64,36,155.1,36h3.38c.61,0,.86-.25.86-.66,0-2.11-1.49-3.58-4.1-3.58-2.16,0-4,1.36-4.1,3h-1.75c.28-2.69,2.94-4.61,5.85-4.61,3.66,0,5.85,2.08,5.85,5.19"/><rect x="164.35" y="24.72" width="2" height="19.62"/><path d="M54.06,34,64.28,44.22a.42.42,0,0,0,.31.13H77.13a.44.44,0,0,0,.32-.75L61,27.11l10-10a.43.43,0,0,0,0-.63l-6.27-6.27a.44.44,0,0,0-.62,0l-27,27a.43.43,0,0,0,0,.63L43.41,44A.44.44,0,0,0,44,44Z"/><path d="M53.45.14,43.72,9.87,34,.14A.44.44,0,0,0,33.67,0H21.13a.44.44,0,0,0-.31.75l16,16-3.44,3.44L13.3.14A.44.44,0,0,0,13,0H.44A.44.44,0,0,0,.13.76L33.06,33.69a.44.44,0,0,0,.63,0L66.62.76A.44.44,0,0,0,66.31,0H53.77a.44.44,0,0,0-.32.13"/><path d="M74.14.14l-6,6a.44.44,0,0,0,0,.62L74.44,13a.44.44,0,0,0,.63,0L87.31.76A.44.44,0,0,0,87,0H74.46a.44.44,0,0,0-.32.13"/></svg>