<svg id="Layer_1" data-name="Layer 1" xmlns="http://www.w3.org/2000/svg" viewBox="0 0 167.18 50"><defs><style>.cls-1{fill:#fff;}</style></defs><polygon class="cls-1" points="118.18 0 114.44 13.28 110.45 0 106.92 0 102.96 13.28 99.25 0 95.03 0 100.8 19.4 104.85 19.4 108.7 6.49 112.55 19.4 116.65 19.4 122.39 0 118.18 0"/><polygon class="cls-1" points="146.52 0 142.78 13.28 138.79 0 135.27 0 131.3 13.28 127.59 0 123.38 0 129.14 19.4 133.19 19.4 137.04 6.49 140.89 19.4 144.99 19.4 150.73 0 146.52 0"/><polygon class="cls-1" points="151.62 0 151.62 3.58 157.35 3.58 157.35 19.4 161.51 19.4 161.51 3.58 167.25 3.58 167.25 0 151.62 0"/><path class="cls-1" d="M101.69,42.63c3.93,0,7.56-2.41,7.56-8s-3.63-8-7.56-8H98v16ZM96.14,24.94h5.49c5.46,0,9.59,3.63,9.59,9.7s-4.13,9.71-9.59,9.71H96.14Z"/><path class="cls-1" d="M114.14,30.38h1.74v14h-1.74Zm1.91-2.83h-2.11V24.72h2.11Z"/><path class="cls-1" d="M130.31,37.36c0-3.38-2-5.6-5-5.6s-5,2.22-5,5.6,2,5.6,5,5.6,5-2.22,5-5.6m1.55-7V44.9a4.92,4.92,0,0,1-5.13,5.1h-6.45V48.39h6.45a3.33,3.33,0,0,0,3.39-3.49V42.27c-.64,1.36-2.64,2.3-4.85,2.3-4.44,0-6.79-3.22-6.79-7.21s2.35-7.21,6.79-7.21a5.93,5.93,0,0,1,4.85,2.47V30.38Z"/><path class="cls-1" d="M135.34,30.38h1.75v14h-1.75Zm1.92-2.83h-2.11V24.72h2.11Z"/><path class="cls-1" d="M143.65,25.8v4.58h4.44V32h-4.44v8.18A2.29,2.29,0,0,0,146,42.74h2.11v1.61H146a3.85,3.85,0,0,1-4.1-4.19V32h-3v-1.6h3V25.8Z"/><path class="cls-1" d="M159.42,37.89v-.42h-4.24c-2.33,0-3.83,1.11-3.83,2.88,0,1.58,1.25,2.61,3.19,2.61,3.07,0,4.88-1.86,4.88-5.07m1.74-2.55v9h-1.74V41.8a5.47,5.47,0,0,1-5,2.77c-3,0-4.91-1.64-4.91-4.22S151.71,36,155.18,36h3.38c.61,0,.86-.25.86-.66,0-2.11-1.5-3.58-4.11-3.58-2.16,0-4,1.36-4.1,3h-1.74c.27-2.69,2.93-4.61,5.84-4.61,3.66,0,5.85,2.08,5.85,5.19"/><rect class="cls-1" x="164.43" y="24.72" width="2" height="19.62"/><path class="cls-1" d="M54.14,34,64.35,44.22a.48.48,0,0,0,.32.13H77.21a.44.44,0,0,0,.31-.75L61,27.11l10-10a.45.45,0,0,0,0-.63L64.8,10.18a.45.45,0,0,0-.63,0l-27,27a.45.45,0,0,0,0,.63L43.48,44a.45.45,0,0,0,.63,0Z"/><path class="cls-1" d="M53.53.14,43.79,9.87,34.06.14A.4.4,0,0,0,33.75,0H21.21a.44.44,0,0,0-.31.75l16,16-3.45,3.44L13.37.14A.4.4,0,0,0,13.06,0H.52A.44.44,0,0,0,.2.76L33.14,33.69a.42.42,0,0,0,.62,0L66.69.76A.44.44,0,0,0,66.38,0H53.84a.4.4,0,0,0-.31.13"/><path class="cls-1" d="M74.22.14l-6,6a.42.42,0,0,0,0,.62L74.52,13a.42.42,0,0,0,.62,0L87.38.76A.44.44,0,0,0,87.07,0H74.53a.4.4,0,0,0-.31.13"/></svg>